<svg xmlns="http://www.w3.org/2000/svg" viewBox="0 0 256 256"><path fill="#34343c" d="M0 .002h255.999V256H0z"/><g stroke-width=".049"><path fill="#f68712" d="M128 76.25 76.252 128l51.75 51.75L179.75 128 128 76.25"/><path fill="#fab20b" d="m59 58.999 69 17.25L76.252 128l-17.25-69"/><path fill="#f47216" d="m197 58.999-17.25 69L128 76.25 197 59"/><path fill="#f25c19" d="m197 196.999-69-17.251 51.75-51.75 17.25 69"/><path fill="#f89c0e" d="m59 196.999 17.251-69 51.75 51.751-69 17.249"/><path fill="#fbc707" d="M128 76.25 59 58.999h34.5l34.5 17.25m0 .001 69-17.251h-34.5L128 76.249"/><path fill="#f68712" d="m128 179.748 69 17.25h-34.5l-34.5-17.25"/><path fill="#f25c19" d="m128 179.748-69 17.25h34.5l34.5-17.25"/><path fill="#fff200" d="m76.251 128-17.25 68.999v-34.5L76.25 128m.001 0L58.998 58.999v34.5l17.251 34.5"/><path fill="#f1471d" d="M179.75 128 197 58.999v34.5l-17.25 34.5m0 .001L197 196.999v-34.5L179.75 128"/></g></svg>