<svg xmlns="http://www.w3.org/2000/svg" viewBox="0 0 227.27 227.27"><path d="M113.632 28.408l-63.66-5.818L0 0h56.815l56.817 28.38M113.632 28.408l67.47-7.815L227.27 0h-56.822l-56.816 28.38" fill="#fbc712"/><path d="M113.632 198.858l56.816 6.763 56.822 21.643h-56.822l-56.816-28.439" fill="#f6871f"/><path d="M113.632 198.858l-56.817 6.107L0 227.264h56.815l56.817-28.439" fill="#f15e22"/><path d="M28.407 113.632l-8.385 66.709L0 227.264V170.45l28.407-56.85" fill="#fcee23"/><path d="M28.407 113.632L22.02 52.54 0 0v56.816L28.407 113.6" fill="#fcee23"/><path d="M198.858 113.632l8.198-61.758L227.266 0v56.816L198.857 113.6" fill="#f04923"/><path d="M198.858 113.632l5.542 62.714 22.866 50.918V170.45l-28.408-56.85" fill="#f04923"/><path d="M0 0l113.632 28.408v85.177H28.407L0 .058" fill="#f8b218"/><path d="M0 227.264l28.407-113.632 85.225-.047v85.208L0 227.147" fill="#f89d1c"/><path d="M227.27 0l-28.412 113.629-85.226-.044V28.403L227.27.058" fill="#f37321"/><path d="M227.27 227.264l-113.638-28.406v-85.273l85.226.047 28.412 113.515" fill="#f15e22"/><path d="M113.632 28.408l-85.225 85.224 85.225 85.226 85.226-85.23-85.226-85.248" fill="#f6871f"/></svg>